<?xml version="1.0" encoding="UTF-8" standalone="no"?>
<!-- Generated with https://github.com/RazrFalcon/barh -->
<svg height="167" shape-rendering="crispEdges" width="546" xmlns="http://www.w3.org/2000/svg">
    <text font-family="Arial" font-size="15" font-weight="bold" x="55" y="15">
        Complex example
    </text>
    <text font-family="Arial" font-size="15" x="6" y="51">
        Item 1
    </text>
    <text font-family="Arial" font-size="15" x="4" y="84">
        Item 2
    </text>
    <text font-family="Arial" font-size="15" x="4" y="115">
        Item 3
    </text>
    <rect fill="#ccc" height="103" width="1" x="55" y="27"/>
    <text fill="#000" font-family="Arial" font-size="15" x="45" y="143">
        0%
    </text>
    <rect fill="#ccc" height="103" width="1" x="55" y="27"/>
    <text fill="#000" font-family="Arial" font-size="15" x="45" y="143">
        0%
    </text>
    <rect fill="#ccc" height="103" width="1" x="172" y="27"/>
    <text fill="#000" font-family="Arial" font-size="15" x="157" y="143">
        25%
    </text>
    <rect fill="#ccc" height="103" width="1" x="290" y="27"/>
    <text fill="#000" font-family="Arial" font-size="15" x="275" y="143">
        50%
    </text>
    <rect fill="#ccc" height="103" width="1" x="408" y="27"/>
    <text fill="#000" font-family="Arial" font-size="15" x="393" y="143">
        75%
    </text>
    <rect fill="#ccc" height="103" width="1" x="526" y="27"/>
    <text fill="#000" font-family="Arial" font-size="15" x="507" y="143">
        100%
    </text>
    <rect fill="#3260cd" height="21" width="67" x="55" y="37"/>
    <text fill="#fff" font-family="Arial" font-size="15" x="89" y="51">
        14.4
    </text>
    <rect fill="#e34234" height="21" width="261" x="55" y="68"/>
    <text fill="#fff" font-family="Arial" font-size="15" x="283" y="84">
        55.5
    </text>
    <rect fill="#3260cd" height="21" width="419" x="55" y="99"/>
    <text fill="#fff" font-family="Arial" font-size="15" x="444" y="115">
        89.1
    </text>
    <rect fill="#333" height="103" width="1" x="55" y="27"/>
    <text font-family="Arial" font-size="15" font-style="italic" x="278" y="163">
        Ratio
    </text>
</svg>
